<svg width="20" height="20" viewBox="0 0 20 20" fill="none" xmlns="http://www.w3.org/2000/svg">
    <path d="M10.2 1C5.124 1 1 5.124 1 10.2s4.124 9.2 9.2 9.2 9.2-4.124 9.2-9.2S15.276 1 10.2 1zm0 .8c4.644 0 8.4 3.756 8.4 8.4s-3.756 8.4-8.4 8.4a8.394 8.394 0 0 1-8.4-8.4c0-4.644 3.756-8.4 8.4-8.4zm3.196 4.795a.4.4 0 0 0-.279.122L10.2 9.634 7.283 6.717a.4.4 0 1 0-.566.566L9.634 10.2l-2.917 2.917a.4.4 0 1 0 .566.566l2.917-2.917 2.917 2.917a.4.4 0 1 0 .566-.566L10.766 10.2l2.917-2.917a.4.4 0 0 0-.287-.688z" fill="#777"/>
</svg>
