<svg width="58" height="45" viewBox="0 0 58 45" fill="none" xmlns="http://www.w3.org/2000/svg">
    <g clip-path="url(#a9g9vczsta)">
        <path fill-rule="evenodd" clip-rule="evenodd" d="M37 16c.232 0 .455.074.619.205.164.131.256.31.256.495v.7h3.138c.464 0 .909.148 1.237.41l1.494 1.195c.164.131.256.31.256.495a.638.638 0 0 1-.256.495L42.25 21.19c-.328.262-.773.41-1.237.41h-3.138v.7h.875c.464 0 .91.148 1.237.41.329.263.513.619.513.99v1.4c0 .371-.184.727-.513.99-.328.262-.773.41-1.237.41h-.875v2.1h1.75c.232 0 .455.074.619.205.164.131.256.31.256.495a.638.638 0 0 1-.256.495.997.997 0 0 1-.619.205h-5.25a.997.997 0 0 1-.619-.205.638.638 0 0 1-.256-.495c0-.186.092-.364.256-.495a.997.997 0 0 1 .619-.205h1.75v-2.1h-3.138c-.464 0-.909-.148-1.237-.41l-1.494-1.195A.638.638 0 0 1 30 24.4c0-.186.092-.364.256-.495l1.494-1.195c.328-.262.773-.41 1.237-.41h3.138v-.7h-.875c-.464 0-.91-.148-1.237-.41-.329-.263-.513-.619-.513-.99v-1.4c0-.371.184-.727.513-.99.328-.262.773-.41 1.237-.41h.875v-.7c0-.186.092-.364.256-.495A.996.996 0 0 1 37 16zm1.75 7.7h-5.763l-.875.7.875.7h5.763v-1.4zm2.263-4.9H35.25v1.4h5.763l.875-.7-.875-.7z" fill="#F68B1F"/>
        <path stroke="#005D34" stroke-width="2" stroke-linecap="round" d="M35.316 13.668H47M29 32h17.998M46.893 14v18"/>
    </g>
    <defs>
        <clipPath id="a9g9vczsta">
            <path fill="#fff" d="M0 0h58v45H0z"/>
        </clipPath>
    </defs>
</svg>
