<svg width="24" height="24" viewBox="0 0 24 24" fill="none" xmlns="http://www.w3.org/2000/svg">
<path fill-rule="evenodd" clip-rule="evenodd" d="M5.5 6C4.6709 6 4 6.6709 4 7.5C4 8.3291 4.6709 9 5.5 9C6.3291 9 7 8.3291 7 7.5C7 6.6709 6.3291 6 5.5 6ZM10 6C9.1709 6 8.5 6.6709 8.5 7.5C8.5 8.3291 9.1709 9 10 9C10.8291 9 11.5 8.3291 11.5 7.5C11.5 6.6709 10.8291 6 10 6ZM14.5 6C13.6709 6 13 6.6709 13 7.5C13 8.3291 13.6709 9 14.5 9C15.3291 9 16 8.3291 16 7.5C16 6.6709 15.3291 6 14.5 6ZM19 6C18.1709 6 17.5 6.6709 17.5 7.5C17.5 8.3291 18.1709 9 19 9C19.8291 9 20.5 8.3291 20.5 7.5C20.5 6.6709 19.8291 6 19 6Z" fill="#F68B1F"/>
<path fill-rule="evenodd" clip-rule="evenodd" d="M1 3V12H23.5V3H1ZM2.5 4.5H22V10.5H2.5V4.5ZM16.2109 13.7109L11.5 18.4219L9.03906 15.9609L7.96094 17.0391L10.9609 20.0391L11.5 20.5547L12.0391 20.0391L17.2891 14.7891L16.2109 13.7109Z" fill="#005D34"/>
</svg>
