<svg width="24" height="24" viewBox="0 0 24 24" fill="none" xmlns="http://www.w3.org/2000/svg">
<path fill-rule="evenodd" clip-rule="evenodd" d="M12 6.75V11.25H22.5V6.75H12ZM13.5 8.25H21V9.75H13.5V8.25ZM12 16.5H22.5V12H12V16.5ZM13.5 13.5H21V15H13.5V13.5Z" fill="#F68B1F"/>
<path fill-rule="evenodd" clip-rule="evenodd" d="M6 3.75C3.52441 3.75 1.5 5.77441 1.5 8.25C1.5 9.87891 2.44629 11.2119 3.75 12V18.3047L3.96094 18.5391L5.46094 20.0391L6 20.5547L6.53906 20.0391L8.03906 18.5391L8.25 18.3047V12C9.55371 11.2119 10.5 9.87891 10.5 8.25C10.5 5.77441 8.47559 3.75 6 3.75ZM6 5.25C7.66406 5.25 9 6.58594 9 8.25C9 9.48633 8.25293 10.5293 7.19531 10.9922L6.75 11.2031V12.75H6V14.25H6.75V15H6V16.5H6.75V17.6719L6 18.4219L5.25 17.6719V11.2031L4.80469 10.9922C3.74707 10.5293 3 9.48633 3 8.25C3 6.58594 4.33594 5.25 6 5.25ZM6 6.75C5.1709 6.75 4.5 7.4209 4.5 8.25H7.5C7.5 7.4209 6.8291 6.75 6 6.75Z" fill="#005D34"/>
</svg>
