<svg width="14" height="16" viewBox="0 0 14 16" xmlns="http://www.w3.org/2000/svg">
    <path d="M10.29 16c.53 0 .958-.156 1.283-.467.326-.312.504-.734.534-1.267l.485-10.315h.825c.162 0 .3-.057.413-.17a.576.576 0 0 0 .17-.426.558.558 0 0 0-.17-.41.563.563 0 0 0-.413-.17h-3.226v-1.07c0-.534-.162-.951-.488-1.253C9.378.151 8.927 0 8.352 0H5.633c-.57 0-1.018.15-1.344.452-.325.302-.488.72-.488 1.252v1.071H.582a.567.567 0 0 0-.409.17.552.552 0 0 0-.174.41c0 .171.058.313.174.426.116.113.253.17.409.17h.825l.485 10.322c.03.533.208.954.534 1.263.325.31.753.464 1.283.464h6.58zM8.95 2.775H5.034v-1.01c0-.192.063-.345.19-.46a.7.7 0 0 1 .492-.174h2.551c.207 0 .373.058.496.173a.6.6 0 0 1 .186.46v1.011zm1.204 12.041H3.839a.684.684 0 0 1-.504-.2.742.742 0 0 1-.215-.509L2.627 3.951h8.715l-.462 10.156a.737.737 0 0 1-.215.513.701.701 0 0 1-.511.196zm-5.27-1.184a.483.483 0 0 0 .344-.124.397.397 0 0 0 .125-.32l-.22-7.548a.447.447 0 0 0-.136-.324.468.468 0 0 0-.333-.12.467.467 0 0 0-.344.124.442.442 0 0 0-.125.328l.22 7.54c.004.135.048.243.132.324.083.08.195.12.337.12zm2.12 0c.141 0 .256-.04.344-.12a.417.417 0 0 0 .133-.324V5.64a.42.42 0 0 0-.133-.32.483.483 0 0 0-.344-.125.497.497 0 0 0-.349.125.414.414 0 0 0-.136.32v7.548c0 .135.046.243.136.324.091.08.207.12.349.12zm2.112 0c.142 0 .254-.04.337-.12a.446.446 0 0 0 .133-.317l.22-7.547a.442.442 0 0 0-.126-.328.467.467 0 0 0-.344-.125.468.468 0 0 0-.333.12.456.456 0 0 0-.137.333l-.22 7.54c0 .13.044.237.13.32a.47.47 0 0 0 .34.124z" fill="#B43131" fill-rule="nonzero"/>
</svg>
