<svg xmlns="http://www.w3.org/2000/svg" width="24" height="24" viewBox="20 10 10 24" fill="none">
<g filter="url(#filter0_d_2643_58152)">
<rect x="12" y="12" width="24" height="24" rx="5" fill="#ECFFF7" shape-rendering="crispEdges"/>
<path d="M18.3075 23.5768C18.5706 23.5364 18.8256 23.5121 19.0966 23.5121C19.3596 23.5121 19.6226 23.5364 19.8936 23.5849V16.7663C19.8936 16.0302 20.2761 15.6177 21.0492 15.6177H24.4285V20.0179C24.4285 21.1907 24.9944 21.7569 26.1421 21.7569H30.414V28.7616C30.414 29.5057 30.0314 29.9102 29.2583 29.9102H24.1974C24.1017 30.4925 23.8865 31.0426 23.5917 31.5279H29.4018C31.1153 31.5279 32 30.6139 32 28.8668V21.5223C32 20.39 31.8565 19.8723 31.1632 19.1524L26.9948 14.8574C26.3174 14.1618 25.7595 14 24.7553 14H20.9058C19.2002 14 18.3075 14.914 18.3075 16.6692V23.5768ZM25.8153 19.8642V15.828L30.1988 20.3414H26.2935C25.9587 20.3414 25.8153 20.1958 25.8153 19.8642ZM19.1045 33C21.3361 33 23.2091 31.1073 23.2091 28.8263C23.2091 26.5453 21.3521 24.6607 19.1045 24.6607C16.857 24.6607 15 26.5453 15 28.8263C15 31.1154 16.857 33 19.1045 33ZM21.3122 29.5138C20.9376 29.5138 20.6348 29.1984 20.6348 28.8263C20.6348 28.4623 20.9376 28.1388 21.3122 28.1388C21.6789 28.1388 21.9817 28.4623 21.9817 28.8263C21.9737 29.1984 21.6709 29.5138 21.3122 29.5138ZM16.8889 29.5057C16.5302 29.5057 16.2274 29.1903 16.2274 28.8263C16.2274 28.4623 16.5302 28.1469 16.8889 28.1469C17.2635 28.1469 17.5663 28.4623 17.5663 28.8263C17.5584 29.1903 17.2555 29.5057 16.8889 29.5057ZM19.1045 29.5057C18.7459 29.5057 18.4351 29.1903 18.4351 28.8263C18.4351 28.4623 18.7459 28.1469 19.1045 28.1469C19.4712 28.1469 19.782 28.4623 19.782 28.8263C19.774 29.1903 19.4712 29.5057 19.1045 29.5057Z" fill="#005D34"/>
</g>

</svg>