<svg width="24" height="24" viewBox="0 0 24 24" fill="none" xmlns="http://www.w3.org/2000/svg">
    <path d="M3 2a1 1 0 0 0-1 1v17.5a1 1 0 0 0 1 1h6.768a.75.75 0 1 0 0-1.5H4.5a1 1 0 0 1-1-1V4.5a1 1 0 0 1 1-1H10a1 1 0 0 1 1 1V7a1 1 0 0 0 1 1h2.5a1 1 0 0 1 1 1v2.153c0 .451.442.77.886.69.339-.06.614-.341.614-.685V7.354a1 1 0 0 0-.293-.707l-4.354-4.354A1 1 0 0 0 11.646 2H3zm9.5 2.56 1.94 1.94H12.5V4.56zm-6 5.69a.75.75 0 0 0 0 1.5h6a.75.75 0 0 0 0-1.5h-6zm0 3a.75.75 0 0 0 0 1.5h6a.75.75 0 0 0 0-1.5h-6zm10.875 0c-2.25 0-4.125 1.875-4.125 4.125 0 .9.3 1.65.75 2.325l-2.475 2.475a.743.743 0 0 0 1.05 1.05l2.475-2.475c.675.45 1.5.75 2.325.75 2.25 0 4.125-1.875 4.125-4.125s-1.875-4.125-4.125-4.125zm0 1.5c1.425 0 2.625 1.2 2.625 2.625S18.8 20 17.375 20s-2.625-1.2-2.625-2.625 1.2-2.625 2.625-2.625zM6.5 16.25a.75.75 0 0 0 0 1.5h3a.75.75 0 0 0 0-1.5h-3z" fill="#F7773B"/>
</svg>
