<svg width="16" height="16" viewBox="0 0 16 16" xmlns="http://www.w3.org/2000/svg">
    <path d="m15.187 2.007.596-.613A.752.752 0 0 0 16 .883a.69.69 0 0 0-.209-.502l-.195-.196a.57.57 0 0 0-.477-.183.763.763 0 0 0-.494.234l-.604.596 1.166 1.175zm-9.611 8.682 1.609-.69L14.6 2.594l-1.175-1.158-7.406 7.406-.724 1.557c-.04.08-.024.156.047.23.07.074.149.094.234.06zM12.003 16c.75 0 1.331-.216 1.745-.647.415-.431.622-1.07.622-1.915V4.875l-1.447 1.447v7.005c0 .403-.096.707-.286.911a.912.912 0 0 1-.693.306H2.639c-.386 0-.682-.102-.89-.306-.207-.204-.31-.508-.31-.91v-9.04c0-.403.103-.707.31-.911.208-.204.504-.306.89-.306h7.1l1.447-1.447H2.588c-.857 0-1.503.214-1.937.642C.217 2.695 0 3.334 0 4.186v9.252c0 .845.217 1.484.651 1.915.434.431 1.08.647 1.937.647h9.415z" fill="#4B4A4A" fill-rule="nonzero"/>
</svg>
