<svg width="15" height="15" viewBox="0 0 15 15" fill="none" xmlns="http://www.w3.org/2000/svg">
    <g clip-path="url(#fo2a7cb10a)">
        <path d="M7.5 1.25a6.25 6.25 0 1 0 0 12.5 6.25 6.25 0 0 0 0-12.5zm0 11.25c-2.757 0-5-2.243-5-5s2.243-5 5-5 5 2.243 5 5-2.243 5-5 5z" fill="#005D34"/>
    </g>
    <path d="M8.148 12H6.876V5.664h1.272V12zM6.78 3.996c0-.208.064-.376.192-.504a.73.73 0 0 1 .54-.204c.224 0 .4.068.528.204a.685.685 0 0 1 .204.504c0 .2-.068.364-.204.492-.128.128-.304.192-.528.192-.232 0-.412-.064-.54-.192a.666.666 0 0 1-.192-.492z" fill="#005D34"/>
    <defs>
        <clipPath id="fo2a7cb10a">
            <path fill="#fff" d="M0 0h15v15H0z"/>
        </clipPath>
    </defs>
</svg>
