<svg width="20" height="16" viewBox="0 0 20 16" fill="none" xmlns="http://www.w3.org/2000/svg">
<path fill-rule="evenodd" clip-rule="evenodd" d="M16.6667 0C17.1087 0 17.5326 0.210714 17.8452 0.585786C18.1577 0.960859 18.3333 1.46957 18.3333 2V12C18.3333 13.11 17.5917 14 16.6667 14H20V16H0V14H3.33333C2.89131 14 2.46738 13.7893 2.15482 13.4142C1.84226 13.0391 1.66667 12.5304 1.66667 12V2C1.66667 0.89 2.40833 0 3.33333 0H16.6667ZM16.6667 2H3.33333V12H16.6667V2Z" fill="#005D34"/>
<path fill-rule="evenodd" clip-rule="evenodd" d="M13.3333 10C13.3333 8.9 11.8417 8 10 8C8.15833 8 6.66667 8.9 6.66667 10V11H13.3333V10ZM11.1785 3.58579C10.8659 3.21071 10.442 3 10 3C9.08333 3 8.33333 3.89 8.33333 5C8.33333 6.11 9.075 7 10 7C10.442 7 10.8659 6.78929 11.1785 6.41421C11.4911 6.03914 11.6667 5.53043 11.6667 5C11.6667 4.46957 11.4911 3.96086 11.1785 3.58579Z" fill="#F68B1F"/>
</svg>
