<svg width="20" height="20" viewBox="0 0 20 20" fill="none" xmlns="http://www.w3.org/2000/svg">
    <path d="M5 6h6a4.674 4.674 0 0 1 1.425-.75A5.1 5.1 0 0 1 14 5a.968.968 0 0 0-.288-.713A.967.967 0 0 0 13 4H5a.97.97 0 0 0-.713.287A.97.97 0 0 0 4 5c0 .283.096.52.287.712.192.192.43.288.713.288zM5 10h4c0-.35.038-.692.113-1.025.075-.333.179-.658.312-.975H5a.97.97 0 0 0-.713.287A.97.97 0 0 0 4 9c0 .283.096.52.287.712.192.192.43.288.713.288zM5 14h2.45c.183-.15.38-.283.588-.4.208-.117.42-.225.637-.325V13c0-.267-.07-.5-.212-.7-.142-.2-.405-.3-.788-.3H5a.97.97 0 0 0-.713.287A.97.97 0 0 0 4 13c0 .283.096.52.287.712.192.192.43.288.713.288z" fill="#F68B1F"/>
    <path fill-rule="evenodd" clip-rule="evenodd" d="M9 20a.965.965 0 0 1-.712-.288A.965.965 0 0 1 8 19v-1.9c0-.35.083-.68.25-.988.167-.308.4-.554.7-.737.533-.317.983-.538 1.35-.663.367-.125.858-.237 1.475-.337.2-.033.4-.03.6.012.2.042.367.138.5.288L14 16l1.1-1.325a.79.79 0 0 1 .5-.3c.2-.033.4-.033.6 0 .617.1 1.108.212 1.475.337.367.125.817.346 1.35.663.3.183.538.429.713.737.175.309.262.638.262.988V19c0 .283-.096.52-.288.712A.965.965 0 0 1 19 20H9zm.975-2h3.075l-1.35-1.65c-.3.083-.592.192-.875.325-.283.133-.567.275-.85.425v.9zm4.975 0H18v-.9a6.481 6.481 0 0 0-1.7-.75L14.95 18zM2 18c-.55 0-1.021-.196-1.413-.587A1.928 1.928 0 0 1 0 16V2C0 1.45.196.979.587.587A1.928 1.928 0 0 1 2 0h14c.55 0 1.021.196 1.413.587C17.804.979 18 1.45 18 2v5a9.379 9.379 0 0 0-.875-.95c-.317-.3-.692-.5-1.125-.6V2H2v14h4.15A4.235 4.235 0 0 0 6 17.1v.9H2z" fill="#005D34"/>
    <path fill-rule="evenodd" clip-rule="evenodd" d="M14 13a2.893 2.893 0 0 1-2.125-.875A2.893 2.893 0 0 1 11 10c0-.833.292-1.542.875-2.125A2.893 2.893 0 0 1 14 7c.833 0 1.542.292 2.125.875S17 9.167 17 10s-.292 1.542-.875 2.125A2.893 2.893 0 0 1 14 13zm.712-2.288A.965.965 0 0 1 14 11a.965.965 0 0 1-.712-.288A.965.965 0 0 1 13 10c0-.283.096-.521.288-.713A.967.967 0 0 1 14 9c.283 0 .52.096.712.287.192.192.288.43.288.713s-.096.52-.288.712z" fill="#005D34"/>
</svg>
