<svg width="20" height="20" viewBox="0 0 20 20" fill="none" xmlns="http://www.w3.org/2000/svg">
<path fill-rule="evenodd" clip-rule="evenodd" d="M16.9829 2H15.9215V0H13.7986V2H5.30715V0H3.18429V2H2.12286C1.55984 2 1.01988 2.21071 0.621771 2.58579C0.223658 2.96086 0 3.46957 0 4V18C0 18.5304 0.223658 19.0391 0.621771 19.4142C1.01988 19.7893 1.55984 20 2.12286 20H7.43001V18H1.5V4H9.55287H17.5V8H19.1057V4C19.1057 3.46957 18.8821 2.96086 18.484 2.58579C18.0859 2.21071 17.5459 2 16.9829 2Z" fill="#005D34"/>
<path fill-rule="evenodd" clip-rule="evenodd" d="M17.8479 13.35L18.8563 12.35C19.0479 12.15 19.0479 11.83 18.8563 11.63L17.5656 10.35C17.3337 10.13 16.9908 10.14 16.7892 10.35L15.7808 11.35L17.8479 13.35ZM15.196 11.88L9.07523 17.94V20H11.1524L17.2631 13.88L15.196 11.88Z" fill="#F68B1F"/>
</svg>
