<svg xmlns="http://www.w3.org/2000/svg" viewBox="0 0 475.7 365.08"><defs><style>.cls-1{fill:#105b32;}.cls-2{fill:#f18a28;}</style></defs><g id="Layer_2" data-name="Layer 2"><g id="Layer_1-2" data-name="Layer 1"><path class="cls-1" d="M359.35,276.17c-9.64-7-18.43-14.32-20.66-26.87l-.81-24.37q0-28.89,0-57.77c-.06-2.75-.12-5.51-.17-8.26-3.15-17.84-7.87-34.77-16.08-49.5-8.81-15.82-21.15-24.55-37-36.32a247.09,247.09,0,0,0-21.06-14c-1.4,1.72-12.81,15.24-32,15-18.59-.23-29.52-13.19-31-15a234.82,234.82,0,0,0-20,14c-13.12,10.23-27.19,21.21-36.7,36.73-9.27,15.12-12.31,28.82-12.82,48.37-.59,22.62-1.63,45.16-.31,67.88,1.21,20.89-3.31,40.77-23.49,53-8.26,5-13.39,11.85-10.06,22.24,3.69,11.52,13.35,9.84,22.18,9.84q114.29,0,228.58-.1c8.43,0,18.75,3,22.72-8.72C374.7,290.44,368.08,282.51,359.35,276.17Z"/><path class="cls-2" d="M52,126.7c4.56-34.46,18-67.35,44.65-94.15,5.46-5.48,11-8.23,17.65-1.92s9.91,13.39,2.36,21.25C95,74.42,82.84,101.17,80,132.34c-1,11.38-8.8,18.13-19.42,16.44C50.81,147.23,52.24,137.06,52,126.7Z"/><path class="cls-2" d="M0,99.7C4.56,65.24,18,32.35,44.65,5.55,50.11.07,55.7-2.68,62.3,3.63S72.21,17,64.66,24.88C43,47.42,30.84,74.17,28,105.34c-1,11.38-8.8,18.13-19.42,16.44C-1.19,120.23.24,110.06,0,99.7Z"/><path class="cls-2" d="M426.68,131.64c.18,9.71-.53,19.25-12.78,19.72-11.64.45-14.64-8.92-15.48-18.16-2.64-29.25-14.8-54-34.93-74.87-8.06-8.37-9.71-16.29-.75-24.75,9.32-8.79,15-.43,20.48,5.1C408.72,64.51,422.36,96,426.68,131.64Z"/><path class="cls-2" d="M475.68,107.64c.18,9.71-.53,19.25-12.78,19.72-11.64.45-14.64-8.92-15.48-18.16-2.64-29.25-14.8-54-34.93-74.87C404.43,26,402.78,18,411.74,9.58c9.32-8.79,15-.43,20.48,5.1C457.72,40.51,471.36,72,475.68,107.64Z"/><path class="cls-2" d="M263.47,331.9a33,33,0,1,1-66,.36Z"/><circle class="cls-2" cx="231.56" cy="44.08" r="22"/></g></g></svg>