<svg xmlns="http://www.w3.org/2000/svg" viewBox="0 0 275.72 343"><defs><style>.cls-1{fill:#105b32;}.cls-2{fill:#f18a28;}</style></defs><g id="Layer_2" data-name="Layer 2"><g id="Layer_1-2" data-name="Layer 1"><path class="cls-1" d="M263.19,254.09c-9.63-7-18.43-14.32-20.65-26.87l-.81-24.37q0-28.89,0-57.77l-.18-8.27c-3.15-17.83-7.86-34.76-16.07-49.49-8.82-15.82-21.15-24.55-37-36.32a247.2,247.2,0,0,0-21.05-14c-1.4,1.72-12.82,15.24-32,15-18.59-.23-29.53-13.19-31-15a234.82,234.82,0,0,0-20,14C71.29,61.23,57.21,72.21,47.7,87.73c-9.26,15.12-12.3,28.82-12.81,48.37-.59,22.62-1.63,45.16-.31,67.88,1.21,20.89-3.31,40.77-23.49,53C2.83,262-2.3,268.87,1,279.26c3.69,11.52,13.34,9.84,22.17,9.84q114.3,0,228.58-.1c8.44,0,18.76,3,22.73-8.72C278.55,268.36,271.93,260.43,263.19,254.09Z"/><path class="cls-2" d="M167.32,309.82a33,33,0,0,1-66,.36Z"/><circle class="cls-2" cx="135.41" cy="22" r="22"/></g></g></svg>