<svg width="19" height="24" viewBox="0 0 19 24" xmlns="http://www.w3.org/2000/svg">
    <defs>
        <linearGradient x1="123.217%" y1="-20.598%" x2="0%" y2="96.059%" id="3px1z71xia">
            <stop stop-color="#FCD08E" offset="0%"/>
            <stop stop-color="#C09D69" offset="100%"/>
        </linearGradient>
        <linearGradient x1="122.969%" y1="-20.718%" x2=".17%" y2="96.138%" id="jksmeoym1b">
            <stop stop-color="#FCD08E" offset="0%"/>
            <stop stop-color="#C09D69" offset="100%"/>
        </linearGradient>
        <linearGradient x1="123.159%" y1="-20.718%" x2=".04%" y2="96.138%" id="xe0c3w6z9c">
            <stop stop-color="#FCD08E" offset="0%"/>
            <stop stop-color="#C09D69" offset="100%"/>
        </linearGradient>
        <linearGradient x1="123.217%" y1="-19.804%" x2="0%" y2="95.542%" id="fzw5m8t0jd">
            <stop stop-color="#FCD08E" offset="0%"/>
            <stop stop-color="#C09D69" offset="100%"/>
        </linearGradient>
        <linearGradient x1="94.641%" y1="-20.718%" x2="19.515%" y2="96.138%" id="r3egn702oe">
            <stop stop-color="#FCD08E" offset="0%"/>
            <stop stop-color="#C09D69" offset="100%"/>
        </linearGradient>
    </defs>
    <g fill="none" fill-rule="evenodd">
        <path d="M9.337 10.922h.016a4.421 4.421 0 0 1 4.426 4.466c-.011 2.432-2.014 4.412-4.484 4.41a4.348 4.348 0 0 1-3.104-1.315 4.45 4.45 0 0 1-1.277-3.151 4.436 4.436 0 0 1 4.423-4.41m3.854.647a5.387 5.387 0 0 0-3.844-1.616 5.42 5.42 0 0 0-5.408 5.398c-.008 2.967 2.41 5.393 5.393 5.408h.028c2.953 0 5.373-2.412 5.394-5.378a5.332 5.332 0 0 0-1.563-3.812" fill="url(#3px1z71xia)"/>
        <path fill="url(#jksmeoym1b)" d="m7.327 18.01 4.662-4.662-.613-.635L6.7 17.387z"/>
        <path d="M10.876 16.607a.26.26 0 0 1 .251.275c-.003.153-.114.259-.283.259-.15-.007-.254-.12-.25-.274a.258.258 0 0 1 .266-.26h.016zm-.017-.975a1.26 1.26 0 0 0-1.24 1.242 1.23 1.23 0 0 0 .366.875c.237.237.547.368.874.368h.001a1.261 1.261 0 0 0 1.243-1.242c0-.673-.57-1.242-1.244-1.243z" fill="url(#xe0c3w6z9c)"/>
        <path d="M8.019 13.648a.28.28 0 0 1 .08.202.268.268 0 0 1-.456.19.275.275 0 0 1-.08-.2.275.275 0 0 1 .266-.27h.004a.26.26 0 0 1 .186.078m-.196 1.431h.007c.682 0 1.24-.553 1.245-1.23a1.25 1.25 0 0 0-1.232-1.239c-.693 0-1.243.536-1.253 1.22-.004.33.122.641.354.877.234.238.546.37.879.372" fill="url(#fzw5m8t0jd)"/>
        <path d="M16.667 21.36c0 .03 0 .11-.01.15-.05.19-.15.41-.61.41h-13.4c-.46 0-.56-.22-.61-.41-.01-.04-.01-.12-.01-.15v-6.74c.01-3.35 2.38-6.08 5.64-6.49.64-.09 1.18-.13 1.68-.14.5.01 1.04.05 1.68.14 3.26.41 5.63 3.14 5.64 6.49v6.74zM7.227 2.07c.07-.06.14-.09.21-.09.12 0 .23.08.31.14.47.41 1.02.62 1.6.62.58 0 1.13-.21 1.6-.62.08-.06.19-.14.31-.14.07 0 .14.03.21.09.09.06.18.13.27.19l-.03.06c-.36.72-.72 1.45-1.09 2.18h-2.54c-.37-.73-.73-1.46-1.09-2.18l-.03-.06c.09-.06.18-.13.27-.19zm11.45 12.32c-.05-2.34-.96-4.37-2.7-6.03a8.133 8.133 0 0 0-2.99-1.83c.04-.21.03-.43-.02-.65-.06-.29-.2-.55-.39-.77l1.4-2.79c.07-.15.29-.59.07-1.03-.22-.44-.72-.54-.89-.57-.13-.03-.22-.07-.24-.08-.38-.4-.99-.64-1.67-.64-.68 0-1.29.23-1.68.63-.05.05-.13.11-.22.11s-.17-.06-.22-.11c-.39-.4-1-.63-1.68-.63-.68 0-1.29.24-1.67.64-.02.01-.11.05-.24.08-.17.03-.67.13-.89.57-.22.44 0 .88.07 1.03l1.4 2.79c-.19.22-.33.48-.39.77-.05.22-.06.44-.02.65-1.14.4-2.14 1.01-2.99 1.83-1.74 1.66-2.65 3.69-2.7 6.03-.02 1.13-.02 2.26-.01 3.39v1.99c-.01.59-.01 1.17.01 1.75.05 1.38 1.13 2.42 2.52 2.42h13.62c1.39 0 2.47-1.04 2.52-2.42.02-.58.02-1.16.01-1.75v-1.99c.01-1.13.01-2.26-.01-3.39z" fill="url(#r3egn702oe)"/>
    </g>
</svg>
