<svg xmlns="http://www.w3.org/2000/svg" viewBox="0 0 402.04 402.04"><defs><style>.cls-1{fill:#238863;}</style></defs><g id="Layer_2" data-name="Layer 2"><g id="Layer_1-2" data-name="Layer 1"><path class="cls-1" d="M201,402C90.18,402,0,311.86,0,201S90.18,0,201,0,402,90.18,402,201,311.86,402,201,402Zm0-363C111.68,39,39,111.68,39,201s72.68,162,162,162,162-72.68,162-162S290.36,39,201,39Z"/><path class="cls-1" d="M233.17,276.76a3.59,3.59,0,0,1,6.33,3.09A51,51,0,0,1,232,296c-16.43,23.32-51.85,30.91-66.24,19.08-18.35-15.09-2.43-67,2.52-83.16,7.16-23.36,18.6-45.91,11.52-51.48-5.35-4.2-19,3.07-22-1.83a3.6,3.6,0,0,1-.2-.39,3.52,3.52,0,0,1,2.66-4.75l69.34-13.8a3.57,3.57,0,0,1,4.11,4.59c-3.1,9.76-7.19,22.8-11.83,38.14-18,59.53-25.1,80.05-17.28,85.68,4.51,3.24,12,.16,15.84-1.44A31.23,31.23,0,0,0,233.17,276.76Z"/><circle class="cls-1" cx="216.5" cy="109.14" r="29.16"/></g></g></svg>