<svg width="24" height="24" viewBox="0 0 24 24" xmlns="http://www.w3.org/2000/svg">
    <defs>
        <linearGradient x1="125.362%" y1="-22.316%" x2="0%" y2="97.153%" id="m7bj5v7gma">
            <stop stop-color="#E5CFAB" offset="0%"/>
            <stop stop-color="#B8A584" offset="100%"/>
        </linearGradient>
    </defs>
    <path d="M416.203 23.873c1.023-.9 1.651-2.096 1.785-3.419a5.107 5.107 0 0 0-1.299-3.965c-1.016-1.107-2.384-1.717-3.851-1.717a5.187 5.187 0 0 0-3.636 1.499c-1.056 1.032-1.619 2.556-1.507 4.077.101 1.37.731 2.606 1.789 3.531-2.178 1.021-3.675 2.671-4.457 4.916-2.557-3.227-3.051-8.643.554-12.599 1.892-2.076 4.465-3.219 7.245-3.219 2.579 0 5.035 1.009 6.914 2.842 4 3.903 3.605 9.524.923 12.979a8.286 8.286 0 0 0-1.694-2.91 8.158 8.158 0 0 0-2.766-2.015zm-6.528 2.167a5.822 5.822 0 0 1 3.09-.883c.207 0 .417.011.628.032 2.131.214 3.773 1.269 4.879 3.136.402.678.651 1.417.751 2.164a9.64 9.64 0 0 1-4.502 2.043c-.407.069-.82.102-1.131.128l-.278.026c-2.567-.031-4.617-.731-6.434-2.161.293-1.936 1.3-3.445 2.997-4.485zm3.178-9.277c1.727 0 3.149 1.423 3.17 3.172a3.097 3.097 0 0 1-.908 2.227 3.172 3.172 0 0 1-2.272.95h-.001a3.183 3.183 0 0 1-3.173-3.168 3.184 3.184 0 0 1 3.171-3.181h.013zm7.7-2.914a10.961 10.961 0 0 0-6.064-2.742 14.326 14.326 0 0 0-1.722-.107c-3.478 0-6.47 1.382-8.893 4.109-1.491 1.677-2.421 3.72-2.765 6.071-.028.19-.051.38-.073.57l-.036.32.003 1.575.053.384c.038.29.077.579.126.866a11.407 11.407 0 0 0 2.304 5.2c1.829 2.327 4.222 3.798 7.114 4.374.279.055.561.087.845.118l.399.047c.032.005.197.046.197.046h1.593l.427-.059c.282-.038.564-.076.844-.123a11.412 11.412 0 0 0 5.149-2.263c2.434-1.892 3.92-4.303 4.42-7.17.773-4.439-.546-8.213-3.921-11.216z" transform="translate(-401 -11)" fill="url(#m7bj5v7gma)" fill-rule="evenodd"/>
</svg>
