<svg width="24" height="15" viewBox="0 0 24 15" xmlns="http://www.w3.org/2000/svg">
    <defs>
        <linearGradient x1="126.99%" y1="20.469%" x2="6.977%" y2="66.882%" id="rffbu9j2ia">
            <stop stop-color="#35FBF7" offset="0%"/>
            <stop stop-color="#28BBB8" offset="100%"/>
        </linearGradient>
    </defs>
    <path d="M1000.822 209.239c-.03 0-.068-.002-.116-.006a2570.32 2570.32 0 0 1-6.612-2.247l-.961-.328 2.221-.759c1.769-.603 3.537-1.206 5.307-1.804a.46.46 0 0 1 .137-.024l.054.007c2.487.843 4.97 1.691 7.454 2.539l.131.047-.243.084c-2.417.827-4.835 1.654-7.254 2.474a.33.33 0 0 1-.118.017m-5.046 3.507a333.4 333.4 0 0 1-.005-2.646l.004-.412.997.338c1.162.393 2.323.787 3.482 1.188.193.067.376.1.559.1.179 0 .357-.032.541-.097a353.76 353.76 0 0 1 3.333-1.145l1.105-.375v.876c.001.743.001 1.487-.006 2.229a.263.263 0 0 1-.068.166 6.943 6.943 0 0 1-3.449 1.78c-.483.096-.97.145-1.446.145a7.184 7.184 0 0 1-2.821-.585 6.895 6.895 0 0 1-2.159-1.435.232.232 0 0 1-.067-.127m16.747-6.354c-.105-.341-.385-.605-.789-.741-3.109-1.049-6.214-2.112-9.319-3.174l-1.145-.391a1.488 1.488 0 0 0-.492-.086c-.158 0-.318.028-.477.082-3.472 1.188-6.944 2.376-10.42 3.554-.293.1-.704.291-.881.859l.012.425c.19.489.6.679.935.789.679.223 1.355.454 2.031.685.558.191 1.115.381 1.675.567.102.034.108.045.108.157-.004.71-.007 3.992-.007 3.992-.002.351.105.631.326.857 1.895 1.946 4.148 2.933 6.694 2.933.462 0 .941-.033 1.423-.098 1.952-.261 3.695-1.142 5.178-2.616.302-.3.441-.632.436-1.046-.007-.72-.007-1.441-.006-2.162 0-.617 0-1.234-.004-1.851-.001-.121.014-.133.121-.163.199-.057.394-.126.59-.195l.678-.231v.271c.002.455.003.897-.006 1.338a.609.609 0 0 1-.063.192l-.049.115c-.018.05-.042.1-.065.15-.057.12-.121.256-.125.406a39.508 39.508 0 0 0-.005 2.094.995.995 0 0 0 1.015.97c.56-.007.986-.443.99-1.014l.003-.336c.005-.556.01-1.112-.012-1.667-.007-.17-.076-.321-.144-.467a24.28 24.28 0 0 1-.12-.272.361.361 0 0 1-.039-.094c-.004-.351-.004-.702-.004-1.052 0-.352 0-.705.055-1.128l.158-.05c.341-.108.682-.216 1.01-.356.146-.063.419-.204.6-.443a.893.893 0 0 0 .134-.803" transform="translate(-989 -202)" fill="url(#rffbu9j2ia)" fill-rule="evenodd"/>
</svg>
