<svg width="24" height="24" viewBox="0 0 24 24" xmlns="http://www.w3.org/2000/svg">
    <defs>
        <linearGradient x1="123.207%" y1="-20.718%" x2=".007%" y2="96.138%" id="n2ay60nnha">
            <stop stop-color="#FCD08E" offset="0%"/>
            <stop stop-color="#C09D69" offset="100%"/>
        </linearGradient>
    </defs>
    <path d="M417.547 32.069h5.515v-5.515h-5.515v5.515zm-6.774-13.552h5.514v-5.515h-5.514v5.515zm-6.77 13.544h5.513v-5.515h-5.514v5.515zm19.327-7.509-2.03-.001v-1.92c-.002-.693-.4-1.091-1.095-1.091h-5.676v-1.024l2.012-.004a1.735 1.735 0 0 0 1.746-1.744c.003-2.008.003-4.015 0-6.024A1.73 1.73 0 0 0 416.541 11h-6.022a1.73 1.73 0 0 0-1.742 1.748 2419.24 2419.24 0 0 0 0 6.024 1.734 1.734 0 0 0 1.75 1.74l2 .001v1.027h-5.719c-.632.001-1.04.411-1.043 1.046v1.966h-2.034a1.724 1.724 0 0 0-1.729 1.737c-.003 2.016-.003 4.031.001 6.047a1.717 1.717 0 0 0 1.738 1.728l6.022.001a1.732 1.732 0 0 0 1.75-1.743c.002-2.007.002-4.015 0-6.023a1.735 1.735 0 0 0-1.744-1.747l-2-.001v-1.013h11.53v1.014h-2.007a1.734 1.734 0 0 0-1.74 1.75c-.003 2.008-.003 4.015 0 6.023.001.973.76 1.737 1.727 1.739l2.907.002 3.14-.002a1.719 1.719 0 0 0 1.736-1.73c.003-2.016.003-4.032 0-6.047a1.724 1.724 0 0 0-1.732-1.735z" transform="translate(-402 -11)" fill="url(#n2ay60nnha)" fill-rule="evenodd"/>
</svg>
