<svg xmlns="http://www.w3.org/2000/svg" xmlns:xlink="http://www.w3.org/1999/xlink" viewBox="0 0 23.98 17.32"><defs><style>.cls-1{fill-rule:evenodd;fill:url(#linear-gradient);}</style><linearGradient id="linear-gradient" x1="-608.76" y1="826.21" x2="-609.98" y2="825.59" gradientTransform="matrix(23.98, 0, 0, -17.32, 14629.02, 14310.94)" gradientUnits="userSpaceOnUse"><stop offset="0" stop-color="#49bcff"/><stop offset="1" stop-color="#378cbd"/></linearGradient></defs><g id="Layer_2" data-name="Layer 2"><g id="Layer_1-2" data-name="Layer 1"><path id="dd3db45a8b" class="cls-1" d="M12,8.52a1.11,1.11,0,0,1,1.11,1.11v0A1.12,1.12,0,0,1,12,10.77h0a1.12,1.12,0,0,1-1.11-1.13h0A1.11,1.11,0,0,1,12,8.52h0Zm7.53-4.59a2,2,0,0,1-2,2h0a2,2,0,0,1-2-2V4a2,2,0,0,1,.59-1.45,2,2,0,0,1,1.41-.59h0a2,2,0,0,1,2,2ZM16.84,15l-.08,0a4.76,4.76,0,0,0-2.33-3.55,3,3,0,0,0,.45-2.74,4.37,4.37,0,0,1,1.92-.78,6.3,6.3,0,0,1,.75-.05,4.39,4.39,0,0,1,2.81,1A4.66,4.66,0,0,1,22.06,12c.1.64-.13,1.07-.83,1.52a9.31,9.31,0,0,1-3,1.21C17.75,14.8,17.3,14.89,16.84,15Zm-6.46-1.8a3,3,0,0,1,1.6-.52,2.94,2.94,0,0,1,1.51.46,2.75,2.75,0,0,1,1.38,2.14,30.89,30.89,0,0,1-5.77,0,2.8,2.8,0,0,1,1.28-2.08ZM6.47,1.91h0a2,2,0,0,1,2,2,2,2,0,0,1-2,2h0a2,2,0,0,1-2-2v0a2,2,0,0,1,2-2Zm-4.54,10a4.57,4.57,0,0,1,2.7-3.6,4.14,4.14,0,0,1,1.8-.39,4.52,4.52,0,0,1,2.66.83,3,3,0,0,0,.47,2.75A4.47,4.47,0,0,0,7.24,15a13.3,13.3,0,0,1-4.11-1.3,6.15,6.15,0,0,1-.68-.45,1.27,1.27,0,0,1-.52-1.38Zm22-.18a6.38,6.38,0,0,0-2.25-4.19,6,6,0,0,0-1.3-.86,4,4,0,0,0,1-2.36,4,4,0,0,0-1.09-3.11A3.91,3.91,0,0,0,17.52,0a4,4,0,0,0-2.7,1.07,3.74,3.74,0,0,0-1.24,2.79,3.86,3.86,0,0,0,1.08,2.8l-.9.5A3,3,0,0,0,12,6.6a3,3,0,0,0-1.76.56l-.89-.49a3.88,3.88,0,0,0,1.06-2.39A4,4,0,0,0,9.27,1.16,3.95,3.95,0,0,0,3.74,1.1,3.82,3.82,0,0,0,2.53,3.89,3.87,3.87,0,0,0,3.61,6.65c-.18-.19-1.76,1.28-1.92,1.46A6.61,6.61,0,0,0,.36,10.27c-.61,1.65-.55,3.52,1,4.58a10.2,10.2,0,0,0,1.8,1,20.82,20.82,0,0,0,6.66,1.4,32.33,32.33,0,0,0,4.72,0,23.32,23.32,0,0,0,4.83-.86,9.81,9.81,0,0,0,3.13-1.46,3.48,3.48,0,0,0,1.28-1.57,3.22,3.22,0,0,0,.11-1.61Z"/></g></g></svg>