<svg width="24" height="24" viewBox="0 0 24 24" fill="none" xmlns="http://www.w3.org/2000/svg">
<path fill-rule="evenodd" clip-rule="evenodd" d="M4.01923 5.23077V16.1346H5.63462V6.84615H14.3962C15.7248 6.84615 16.1346 7.39744 16.1346 7.88811C16.1346 8.60897 15.3269 9.67308 15.3269 9.67308L15.4173 9.71584C19.2692 11.5389 19.2912 11.5494 19.2912 12.9788C19.2912 13.5936 19.2981 13.7213 19.3077 13.8991C19.3204 14.1354 19.338 14.4601 19.3504 16.1346H20.9808V12.5623C20.9808 11.7397 20.6903 10.9431 20.1612 10.3136L16.5826 6.05581C16.1428 5.53283 15.4952 5.23077 14.8119 5.23077H4.01923Z" fill="#F68B1F"/>
<path fill-rule="evenodd" clip-rule="evenodd" d="M4.82692 3.61538V2H20.1731V8.05769L18.5577 6.03846V3.61538H4.82692ZM2 23V17.3462H9.59183C10.1988 18.315 11.2723 18.9615 12.5 18.9615C13.7277 18.9615 14.8012 18.315 15.4082 17.3462H23V23H2Z" fill="#005D34"/>
</svg>
