<svg xmlns="http://www.w3.org/2000/svg" viewBox="0 0 403.12 450.53"><defs><style>.cls-1{stroke:#000;stroke-miterlimit:10;stroke-width:16px;}</style></defs><g id="Layer_2" data-name="Layer 2"><g id="Layer_1-2" data-name="Layer 1"><path class="cls-1" d="M194.86,442.53c-18.73-5.26-31.94-16-35.87-36-.31-1.57-1.13-3.34-.71-4.72,3.78-12.49-4.11-17.05-13.41-22.07C125.66,369.37,107,358,88.12,347c-3.74-2.19-6.36-3.45-11-.24C54.52,362.49,25.92,356,13.38,332.85,1,310,10.71,283.33,35.61,272.06c1.16-.53,2.28-1.17,3.93-2V180.44C23.36,174.34,12,163.56,9,145.55c-3.09-18.84,3.72-33.72,19.53-43.77,15.55-9.89,32-9.46,47.08,1,5.57,3.85,9,3.49,14.36.33,22.93-13.53,46.14-26.57,69-39.67C156.59,32.25,165.73,18.28,194.86,8h13.52c20.47,5.64,36.08,18.24,35.59,39.76-.35,15.46,8,19.27,17.61,24.9,17.72,10.39,35.27,21.08,53.2,31.09,2.77,1.55,8.1,1.6,10.66-.08,23-15.13,51.35-9.31,64.08,13.68s3.2,49.63-21.54,61c-1.45.67-2.84,1.47-4.82,2.5,0,28.08-.15,56.33.26,84.58,0,2.4,3.29,5.65,5.84,7,18.35,9.38,27.94,26.37,25.21,45.59-2.76,19.49-16.22,33.24-36.48,37-11.74,2.18-22-1.66-31.94-7.72-2.57-1.57-7.36-2.24-9.79-.89-24.12,13.36-48,27.24-70.31,40.06-1.52,10.41-1.72,19.75-4.4,28.32-5,15.9-18.05,23.33-33.17,27.77ZM238.11,76.87c-28.31,24.06-43.49,24.16-72.52.66L91.17,120.34c9.18,24.78.1,53.21-35.22,62.37v85.53c33.24,8.43,44.59,33.06,35.52,62.75l73.63,42.7c26.41-26.42,52.19-21.46,72.41-.35l74.4-42.82c-8.74-33,.72-49.32,35.18-62.27V181.69c-14.44-2.71-25.58-9.45-32.92-22-7.5-12.8-6.32-26.21-2.54-39.58Zm-8.62-25.33c0-15.3-13.09-28.22-28.3-28-14.93.23-27.49,13-27.44,27.8.05,15.43,13,28.25,28.23,28C216.82,79.12,229.52,66.28,229.49,51.54Zm0,347.94c.16-15.27-12.78-28.37-28-28.32a28.27,28.27,0,0,0-27.78,27.47C173.54,414,186.42,427,201.65,427,216.55,426.89,229.34,414.27,229.49,399.48ZM79,138.32a27.84,27.84,0,0,0-27.37-27.85c-15.26-.13-28.49,13.23-28.12,28.38.37,15,13.35,27.58,28.17,27.39A27.89,27.89,0,0,0,79,138.32Zm0,174.33c.13-15.73-12.4-28.51-27.82-28.38-14.84.13-27.75,13.14-27.66,27.89.08,14.95,12.8,27.78,27.67,27.91A27.86,27.86,0,0,0,79,312.65ZM324.22,138.49c.07,15.2,12.5,27.77,27.46,27.76s28-12.88,28.05-27.56c.07-15.28-13.18-28.47-28.35-28.22A27.76,27.76,0,0,0,324.22,138.49Zm0,173.66c0,15.32,12.23,27.8,27.28,27.91,14.82.11,28-12.68,28.2-27.41.23-15.23-13-28.52-28.19-28.37A27.7,27.7,0,0,0,324.24,312.15Z"/><path class="cls-1" d="M201.87,166.3c32.85.06,58.91,26.69,58.74,60-.17,32.16-27,58.06-59.86,57.88s-58.3-26.71-58.16-60.49C142.72,192.21,169.51,166.24,201.87,166.3Zm-43.71,57.77c-.23,24.6,18.39,44.29,42.21,44.64,24.35.36,44.48-18.66,44.71-42.24.24-24.4-18.6-44.27-42.33-44.65C178.38,181.43,158.38,200.38,158.16,224.07Z"/></g></g></svg>