<svg width="17" height="18" viewBox="0 0 17 18" fill="none" xmlns="http://www.w3.org/2000/svg">
    <g clip-path="url(#bphzxo710a)">
        <path d="M3.424 13.33a.97.97 0 0 1-.398-.079 1.023 1.023 0 0 1-.338-.236 1.104 1.104 0 0 1-.227-.358 1.163 1.163 0 0 1 0-.848c.053-.134.13-.256.227-.358.097-.102.212-.183.339-.237a.969.969 0 0 1 .397-.078c.27.005.527.122.716.327.19.206.295.482.295.77 0 .288-.106.564-.295.77a.996.996 0 0 1-.716.327zm-2.068 3.978v-2.15c0-.774.596-1.404 1.323-1.404h1.417c.727 0 1.375.63 1.375 1.405v2.15H1.356zm12.713-4.071a.996.996 0 0 0 .725-.322c.193-.206.301-.485.301-.775a1.165 1.165 0 0 0-.071-.428 1.11 1.11 0 0 0-.221-.364 1.028 1.028 0 0 0-.336-.244.971.971 0 0 0-.796 0c-.127.057-.24.14-.336.244-.096.105-.171.228-.221.364-.05.136-.075.281-.072.428 0 .29.108.57.3.775a.996.996 0 0 0 .727.322zm2.066 4.071v-2.15c0-.774-.596-1.404-1.322-1.404h-1.417c-.727 0-1.375.63-1.375 1.405v2.15h4.114zm-7.39-3.984c-.574 0-1.039-.493-1.039-1.1 0-.608.465-1.1 1.039-1.1.573 0 1.038.492 1.038 1.1 0 .607-.465 1.1-1.038 1.1zm-2.501 3.984.817-2.379c.327-1.215 1.28-1.177 1.28-1.177h.81s.952-.038 1.28 1.177l.817 2.38H6.244zm2.5-7.574V7.131L8.34 6.7v2.602H2.222V1.025H8.34v4.252l.405.431V.593H1.819v9.14l6.926.001z" fill="#005D34"/>
        <path d="M5.222 2.804a.532.532 0 0 0 .37-.18.605.605 0 0 0 .153-.403.606.606 0 0 0-.152-.404.532.532 0 0 0-.371-.18.529.529 0 0 0-.386.171.604.604 0 0 0-.16.413c0 .154.057.303.16.412.102.11.24.17.386.17zm1.802 2.423-.448-1.626c-.179-.633-.678-.614-.678-.614H4.547s-.5-.019-.679.614L3.42 5.227a.265.265 0 0 0 .017.192c.015.03.035.055.059.076a.228.228 0 0 0 .172.054.222.222 0 0 0 .088-.03.238.238 0 0 0 .07-.064.256.256 0 0 0 .04-.087l.429-1.556h.191v1.77l-.753 2.76a.364.364 0 0 0 .051.3c.03.043.069.077.113.101a.303.303 0 0 0 .143.036.324.324 0 0 0 .307-.245l.743-2.726h.264l.743 2.726a.35.35 0 0 0 .153.203.304.304 0 0 0 .354-.033.337.337 0 0 0 .117-.23.363.363 0 0 0-.01-.132l-.753-2.758V3.813h.191l.428 1.555a.246.246 0 0 0 .112.148.222.222 0 0 0 .258-.025.246.246 0 0 0 .085-.167.266.266 0 0 0-.008-.097zm7.04-.245a.995.995 0 0 1-.71-.329 1.135 1.135 0 0 1-.293-.766c0-.286.105-.561.293-.766a.995.995 0 0 1 .71-.329c.135 0 .268.028.392.083.125.055.238.136.333.238.095.102.17.222.222.355a1.158 1.158 0 0 1-.222 1.194 1.02 1.02 0 0 1-.333.237.967.967 0 0 1-.392.083zm0 1.63s.249.034.4-.192c.139-.205.149-.887.15-1.01h-1.1c-.005.49.049.848.159 1.028.11.184.39.173.39.173z" fill="#F68B1F"/>
        <path d="M9.597 7.577a.733.733 0 0 0-.096.285c0 .256.193.462.432.462h1.421c.162 0 .374-.07.464-.215.306-.485.63-.996.724-1.149v2.872h3.58V6.887c0-.77-.563-1.463-1.23-1.463.003.361-.043.962-.241 1.224-.207.269-.45.245-.45.245v1.12c.076.034.14.095.18.173a.404.404 0 0 1-.09.476.343.343 0 0 1-.48-.026.383.383 0 0 1-.104-.27c0-.159.09-.295.22-.352V6.888s-.213.019-.414-.196c-.268-.299-.278-1.145-.277-1.283h-.066c-.216 0-.43.057-.62.166-.191.109-.354.267-.474.46l-.85 1.371H9.933L8.111 5.457a.175.175 0 0 0-.124-.055.165.165 0 0 0-.124.055.189.189 0 0 0-.052.133.199.199 0 0 0 .051.133l1.736 1.854z" fill="#F68B1F"/>
    </g>
    <defs>
        <clipPath id="bphzxo710a">
            <path fill="#fff" transform="translate(.622 .353)" d="M0 0h16.216v17.059H0z"/>
        </clipPath>
    </defs>
</svg>
