<svg width="24" height="24" viewBox="0 0 24 24" fill="none" xmlns="http://www.w3.org/2000/svg">
    <path fill-rule="evenodd" clip-rule="evenodd" d="M3 3v6h1.5v2.156l1.172-.773L7.734 9H10.5v2.25h5.672l.773.773c-1.505.156-2.695 1.43-2.695 2.977 0 .835.357 1.588.914 2.133A3.78 3.78 0 0 0 13.5 20.25H15a2.25 2.25 0 0 1 4.5 0H21a3.78 3.78 0 0 0-1.664-3.117A2.984 2.984 0 0 0 20.25 15c0-.747-.293-1.418-.75-1.945V11.25H21V4.5h-6.75V3H3zm9.75 1.5H4.5v3H6v.844l1.078-.727.188-.117h5.484v-3zM19.5 6h-5.25v3H12v.75h4.805l.234.21.961.962V9.75h1.5V6zm-.75 9c0-.838-.662-1.5-1.5-1.5s-1.5.662-1.5 1.5.662 1.5 1.5 1.5 1.5-.662 1.5-1.5z" fill="#005D34"/>
    <path fill-rule="evenodd" clip-rule="evenodd" d="M3.75 15c0-1.65 1.35-3 3-3s3 1.35 3 3c0 .835-.357 1.588-.914 2.133A3.781 3.781 0 0 1 10.5 20.25H9a2.25 2.25 0 0 0-4.5 0H3c0-1.286.665-2.44 1.664-3.117A2.984 2.984 0 0 1 3.75 15zm4.5 0c0-.838-.662-1.5-1.5-1.5s-1.5.662-1.5 1.5.662 1.5 1.5 1.5 1.5-.662 1.5-1.5z" fill="#F68B1F"/>
</svg>
