<svg xmlns="http://www.w3.org/2000/svg" viewBox="0 0 781.21 817.08"><defs><style>.cls-1{fill:#191919;}.cls-2{fill:#176d4a;}.cls-3{fill:#f18700;}</style></defs><g id="Layer_2" data-name="Layer 2"><g id="Layer_1-2" data-name="Layer 1"><path class="cls-1" d="M780.68,637c-.41-26.21-16.95-40.92-43.85-41.42-12.27-.23-24.54,0-39.36,0,0-25.91.32-49.17-.06-72.43-.77-47-20.57-66.91-67.23-67.15-60.94-.3-121.89-.07-182.84-.07H419.13l.66-65.47a107,107,0,0,1-58,0q0,32.73,0,65.45H320.68c-56.54,0-113.08-.23-169.62.1-46.76.26-66.67,20.25-67.39,67.09-.35,23.26-.06,46.52-.06,72.48-14.71,0-27-.18-39.24,0C17.48,596.05.9,610.78.5,637c-.7,46.16-.71,92.35.26,138.49.55,26.1,15.57,40.67,41.66,41.07q69.38,1.08,138.78,0c24.13-.35,40.86-15.78,41.42-39.54q1.66-70.32.19-140.69c-.5-25.11-17.27-40-42.63-40.71-13-.38-25.93-.07-39.1-.07V513.43h221v82c-12.92,0-24.49-.14-36.06,0-31.13.45-45.95,14.66-46.28,45.72-.46,44-.41,88-.08,131.91.21,27.36,14.82,43,41.55,43.35q69.39.95,138.78,0c25.81-.34,41.14-15.73,41.41-41.21q.75-68.15-.06-136.3c-.35-28.16-15.74-42.8-44-43.45-12.81-.29-25.62-.05-38-.05V512.93H640.75v82.61c-14.21,0-25.89-.19-37.56,0-28,.55-44.65,15.64-45,42.95-.65,45.43-.67,90.88.22,136.3.51,25.48,16.46,41.33,41.64,41.72q69.38,1.08,138.77,0c26-.4,41.27-15.27,41.76-41Q781.86,706.25,780.68,637Zm-619-9.56c18.69.13,28.41,10.08,28.43,28.76,0,34.37-.17,68.73-.33,103.09-.08,19.24-10.31,27.7-29.07,27.45-16.85-.22-33.7-.05-50.55-.05v.16c-16.85,0-33.7-.15-50.55,0C40.87,787.09,30.25,778,30,759.39c-.52-35.09-.39-70.2.19-105.29.3-17.69,10.73-26.45,28.23-26.55C92.83,627.37,127.26,627.2,161.69,627.43Zm279.32-.1c19.77,0,29.63,9.54,29,29.81-.5,16.8-.1,33.62-.1,50.43,0,17.55-.19,35.09,0,52.63.22,17.34-8.94,26-25.45,26.19q-53.81.71-107.64,0c-16.44-.2-25.73-8.6-25.65-26q.24-52.62,0-105.25c-.13-19.58,10.46-27.71,28.75-27.79C373.63,627.2,407.32,627.26,441,627.33Zm310.23,131c-.47,18.28-9.52,28.52-28.68,28.46q-51.64-.15-103.29-.14c-19.06,0-28-9.63-28-28.57.09-33.63-.19-67.26-.31-100.89-.07-19.79,9.89-29.81,29.65-29.85,33.7-.06,67.4.08,101.1.1,20,0,29.41,10.43,29.42,30q0,25.23,0,50.45h.17C751.33,724.75,751.67,741.58,751.24,758.38Z"/><path class="cls-2" d="M381.47,0V75a119.12,119.12,0,0,0-43.24,12.93c-42.12,22.25-66.3,69.5-59.3,116.09,7.33,48.81,44.14,87.06,92.06,95.67a113.17,113.17,0,0,0,132.92-98.15c.3-2.49.81-3.93,3.79-3.92,23.5.13,47,.11,70.49.16a2.58,2.58,0,0,1,.9.35c-.63,73.58-59.59,163.71-163.54,176.93C304.34,389.2,209.12,306.43,203.14,199,197,88.8,283,4.42,381.47,0Z"/><path class="cls-3" d="M570.38,178c-1.66,0-3.34-.09-5,0-3.06.21-4-1.33-4.22-4.17C556,101.66,501.9,35.41,422.44,20.32a151.63,151.63,0,0,0-17.28-2.17c-3.05-.22-4.2-1.31-4-4.25.12-1.49,0-3,0-4.5,0-9.35,0-9.56,9.29-8.54,38.39,4.25,72.63,18.46,102.14,43.49,33.55,28.46,54.57,64.46,63.35,107.53,1.56,7.62,2.22,15.44,3,23.19.09.89-1.56,2.54-2.67,2.82C574.46,178.36,572.38,178,570.38,178Z"/><path class="cls-3" d="M401.23,37.19c0-8.85,0-8.61,9-7.64,63.86,6.85,120.93,54.72,136.61,122,1.69,7.25,2.4,14.73,3.54,22.1.49,3.15-.7,4.38-4.09,4.45-12.55.28-12.54.4-14.3-11.81C523.47,106.82,474.36,57.13,415.1,48c-1.64-.25-3.25-.71-4.9-.87C401.23,46.27,401.23,46.29,401.23,37.19Z"/><path class="cls-3" d="M401.23,57.42c50.16,2.16,97.5,38.33,114,87,3.24,9.52,4.72,19.63,7,29.48.69,3-.54,4.08-3.67,4.19-13.24.49-13.24.58-15.44-12.06-7.79-44.6-47-83-91.81-90-10.08-1.57-10.08-1.57-10.08-11.93Z"/></g></g></svg>