<svg width="29" height="28" viewBox="0 0 29 28" fill="none" xmlns="http://www.w3.org/2000/svg">
<path fill-rule="evenodd" clip-rule="evenodd" d="M14.5 11.5L6.78336 10.2213C6.37008 10.1537 5.82275 10.0819 5.82275 9.6537C5.82275 9.13537 6.22487 8.79733 6.78336 8.88748L15.0714 10.3636C15.5071 10.4425 15.7416 10.7016 15.7416 11.1636C15.7416 11.6932 15.0585 11.6014 14.5 11.5ZM14.8034 16.3131L6.47061 14.8257C6.05732 14.7469 5.82275 14.4426 5.82275 14.0032C5.82275 13.4961 6.44151 13.3986 7 13.5L15.0714 15C15.5071 15.0789 15.7416 15.0511 15.7416 15.5243C15.7416 16.0427 15.3618 16.4033 14.8034 16.3131Z" fill="#005B31"/>
<path fill-rule="evenodd" clip-rule="evenodd" d="M20 9.14664C20 7.86208 20 7 19.5 6.5L19.5059 4.35773C19.5059 1.83369 17.8081 0.605474 14.9932 1.11254L3.53292 3.15205C2.28189 3.3098 1.5 4.26758 1.5 5.72116V21.6203C1.5 23.1641 2.3154 24.1106 3.87919 24.3923L14.2089 26L13.5 24.5L3.87919 22.9172C3.3542 22.8158 3 22.1612 3 21.6203V6C3 5.42533 3.87449 4.89859 4.5 5L17 7C18.0165 7.18029 18.5 8.21139 18.5 9.14664V13.5L20 12.5V9.14664ZM5.82275 4L16.8698 5.38312C17.0485 5.40565 17.216 5.43946 17.3836 5.48453V4.26758C17.3836 3.35487 17.05 2.31971 16 2.5L5.82275 4Z" fill="#005B31"/>
<path d="M14.9484 19.8104C14.4953 19.8104 14.3805 20.1586 14.6272 20.501L16.0269 22.4623C16.222 22.735 16.5203 22.7292 16.7096 22.4623L18.1093 20.4952C18.3502 20.1644 18.2412 19.8104 17.7938 19.8104H16.962C17.484 17.7273 19.3369 16.2012 21.5684 16.2012C24.2015 16.2012 26.3125 18.3366 26.3125 21C26.3125 23.6634 24.2015 25.8104 21.5684 25.8046C20.0368 25.7988 18.6944 25.0735 17.8339 23.9304C17.5987 23.6576 17.2545 23.5706 16.9734 23.7795C16.7096 23.971 16.6579 24.3482 16.9161 24.6673C17.9716 26.06 19.7155 27 21.5684 27C24.8153 27 27.5 24.2843 27.5 21C27.5 17.7157 24.8153 15 21.5684 15C18.7174 15 16.3023 17.0832 15.7516 19.8104H14.9484ZM21.3562 17.6402C21.0751 17.6402 20.8513 17.8665 20.8513 18.1451V21.2901C20.8513 21.4294 20.8972 21.5571 20.9948 21.6905L22.3601 23.5126C22.5666 23.7853 22.8649 23.8317 23.1115 23.6518C23.3467 23.4836 23.3697 23.176 23.1861 22.9265L21.8552 21.1161V18.1451C21.8552 17.8665 21.6315 17.6402 21.3562 17.6402Z" fill="#F18700"/>
</svg>
