<svg width="16" height="16" viewBox="0 0 16 16" fill="none" xmlns="http://www.w3.org/2000/svg">
    <g clip-path="url(#vcibr3csda)">
        <path d="M5.333 8.67a.667.667 0 1 0 0-1.334.667.667 0 0 0 0 1.333zM8 8.67a.667.667 0 1 0 0-1.334.667.667 0 0 0 0 1.333zM10.667 8.67a.667.667 0 1 0 0-1.334.667.667 0 0 0 0 1.333zM5.333 11.333a.667.667 0 1 0 0-1.333.667.667 0 0 0 0 1.333zM8 11.333A.667.667 0 1 0 8 10a.667.667 0 0 0 0 1.333zM10.667 11.333a.667.667 0 1 0 0-1.333.667.667 0 0 0 0 1.333z" fill="#F68B1F"/>
        <path d="M2.666 14.67h10.667c.733 0 1.333-.6 1.333-1.334V4.003c0-.734-.6-1.334-1.333-1.334h-2V1.336H10v1.333H6V1.336H4.666v1.333h-2c-.733 0-1.333.6-1.333 1.334v9.333c0 .733.6 1.333 1.333 1.333zm0-10.667h2v1.333H6V4.003h4v1.333h1.333V4.003h2v9.333H2.666V4.003z" fill="#005D34"/>
    </g>
    <defs>
        <clipPath id="vcibr3csda">
            <path fill="#fff" d="M0 0h16v16H0z"/>
        </clipPath>
    </defs>
</svg>
