<?xml version="1.0" encoding="utf-8"?>
<!-- Generator: Adobe Illustrator 25.4.1, SVG Export Plug-In . SVG Version: 6.00 Build 0)  -->
<svg version="1.1" id="Layer_1" xmlns="http://www.w3.org/2000/svg" xmlns:xlink="http://www.w3.org/1999/xlink" x="0px" y="0px"
	 viewBox="0 0 178.8 104.6" style="enable-background:new 0 0 178.8 104.6;" xml:space="preserve">
<style type="text/css">
	.st0{fill:#238863;}
</style>
<path class="st0" d="M177.2,48.1c-9.2-13.2-37-46.3-84-48C56.6-1.3,21.7,17,1.5,47.8c-2,3-2,7,0.1,10c20.5,30.1,54.9,47.9,91.2,46.8
	c46.6-1.4,74.8-33.3,84.3-46.2C179.3,55.3,179.4,51.2,177.2,48.1z M89.4,84.1c-17.6,0-31.8-14.3-31.8-31.8s14.3-31.8,31.8-31.8
	c17.6,0,31.8,14.3,31.8,31.8S107,84.1,89.4,84.1z"/>
<circle class="st0" cx="89.4" cy="52.3" r="21.2"/>
</svg>
