<svg xmlns="http://www.w3.org/2000/svg" xmlns:xlink="http://www.w3.org/1999/xlink" width="28" height="28" viewBox="0 0 28 28">
    <defs>
        <filter id="k010ju0oqa" width="170%" height="170%" x="-35%" y="-25%" filterUnits="objectBoundingBox">
            <feOffset dy="2" in="SourceAlpha" result="shadowOffsetOuter1"/>
            <feGaussianBlur in="shadowOffsetOuter1" result="shadowBlurOuter1" stdDeviation="2"/>
            <feColorMatrix in="shadowBlurOuter1" values="0 0 0 0 0 0 0 0 0 0 0 0 0 0 0 0 0 0 0.2 0"/>
        </filter>
        <path id="2zgywk7wub" d="M15.512 24c.695 0 1.343-.124 1.945-.37.602-.248 1.147-.64 1.634-1.18.281-.317.503-.654.665-1.012.163-.358.244-.718.244-1.08 0-.28-.06-.555-.177-.824-.118-.27-.318-.5-.599-.692l-3.235-2.29c-.251-.185-.484-.32-.698-.405-.214-.085-.421-.127-.62-.127-.244 0-.48.068-.71.205-.229.136-.465.323-.709.559l-.764.752c-.111.118-.248.177-.41.177-.09 0-.17-.014-.244-.044-.074-.03-.14-.055-.2-.077-.332-.185-.759-.498-1.28-.941-.52-.443-1.047-.926-1.578-1.45-.525-.531-1.009-1.057-1.452-1.577-.443-.52-.753-.947-.93-1.279-.03-.059-.06-.125-.09-.199-.029-.074-.044-.155-.044-.243 0-.155.06-.288.178-.399l.753-.764c.244-.25.432-.488.565-.713.133-.225.2-.467.2-.725 0-.185-.045-.386-.133-.604-.089-.217-.222-.455-.4-.713L5.142 4.797c-.192-.273-.424-.474-.698-.603C4.17 4.064 3.878 4 3.568 4c-.731 0-1.415.303-2.05.908C.986 5.402.6 5.954.36 6.562.12 7.171 0 7.818 0 8.505c0 1.025.24 2.11.72 3.254.48 1.143 1.136 2.287 1.967 3.43.831 1.145 1.771 2.237 2.82 3.277 1.034 1.048 2.13 1.989 3.285 2.822 1.156.834 2.309 1.495 3.457 1.982 1.149.487 2.237.73 3.263.73z"/>
    </defs>
    <g fill="none" fill-rule="evenodd">
        <g fill-rule="nonzero">
            <g>
                <g>
                    <g transform="translate(-442.000000, -104.000000) translate(430.000000, 25.000000) translate(16.000000, 67.000000) translate(0.000000, 10.000000)">
                        <use fill="#000" filter="url(#k010ju0oqa)" xlink:href="#2zgywk7wub"/>
                        <use fill="#389372" xlink:href="#2zgywk7wub"/>
                    </g>
                </g>
            </g>
        </g>
    </g>
</svg>
