<?xml version="1.0" encoding="utf-8"?>
<!-- Generator: Adobe Illustrator 25.4.1, SVG Export Plug-In . SVG Version: 6.00 Build 0)  -->
<svg version="1.1" id="Layer_1" xmlns="http://www.w3.org/2000/svg" xmlns:xlink="http://www.w3.org/1999/xlink" x="0px" y="0px"
	 viewBox="0 0 268.27 385.4" style="enable-background:new 0 0 268.27 385.4;" xml:space="preserve">
<style type="text/css">
	.st0{fill:#238863;}
</style>
<path class="st0" d="M135.33,353.05c13.12-24.76,23.62-44.42,33.97-64.16c10.78-20.55,21.59-41.09,32.02-61.82
	c4.63-9.2,9.97-11.9,20.58-8.28c27.46,9.37,39.45,23.32,41.2,51.71c1.83,29.78,3.65,59.57,5.08,89.38
	c1.01,21.03-6.77,29.78-27.66,29.73c-71.63-0.18-143.25-0.67-214.87-1.5C7.59,387.9-1,378.42,0.09,360.16
	c1.98-33.1,4.21-66.21,7.54-99.19c2.25-22.19,26.52-44.36,47.72-43.73c4.69,0.14,10.77,6.58,13.5,11.59
	c18.35,33.79,35.94,67.99,53.85,102.02C125.7,336.56,129.06,342.07,135.33,353.05z"/>
<path class="st0" d="M158.67,287.03c-8.41,15.89-16.82,31.77-25.23,47.66c-7.72-15.79-15.43-31.59-23.15-47.38
	c4.46-13.37,8.93-26.74,13.39-40.1c-4.78-5.74-9.56-11.48-14.34-17.23c7.65-8.25,15.31-16.5,22.96-24.75
	c7.59,8.33,15.19,16.65,22.78,24.98c-4.33,5.66-8.65,11.33-12.98,16.99C147.62,260.47,153.15,273.75,158.67,287.03z"/>
<path class="st0" d="M213.33,99.17c1.64-8.3,3.99-26.21-3.26-46.66c-3.22-9.09-13.82-34.16-37.98-45.94
	C132.21-12.86,74.11,13.1,58.16,54.69c-6.55,17.07-4.68,33.33-2.59,43.1c-7.38,3.77-11.19,11.95-9.35,19.47
	c1.55,6.35,6.91,11.3,13.63,12.63c0.23,2.33,5.23,45.26,43.15,62.97c3.72,1.74,28.5,12.83,56.43,2.17
	c26.17-9.99,44.62-35.08,48.11-64.74c8.64-1.43,14.84-8.53,14.94-16.3C222.57,107.97,218.98,102.25,213.33,99.17z M196.56,134.75
	c-2.26,8.17-8.85,32.06-32.01,45.57c-4.37,2.55-18.15,10.34-36.22,8.55c-32.53-3.22-49.21-34.54-52.22-40.56
	c-12.2-24.38-7.54-47.94-5.65-55.65c8.87-10.59,28.19-30.54,59.36-40.92c9.14-3.04,17.73-4.75,25.37-5.65
	c7.77-0.91,15.44,2.4,20.08,8.71c2.9,3.95,5.85,8.25,8.76,12.9c5.58,8.91,9.95,17.37,13.38,24.96
	C199.45,101.79,201.42,117.14,196.56,134.75z"/>
</svg>
