<svg width="24" height="24" viewBox="0 0 24 24" fill="none" xmlns="http://www.w3.org/2000/svg">
    <path d="M4.34 7.381v2.225a3.351 3.351 0 0 0 3.351 3.351h1.915a1.436 1.436 0 0 1 1.436 1.437v2.225A2.293 2.293 0 0 0 11.999 21a2.298 2.298 0 0 0 2.298-2.298c0-.926-.552-1.72-1.34-2.083v-2.225a1.436 1.436 0 0 1 1.435-1.437h1.915a3.35 3.35 0 0 0 3.351-3.35V7.38A2.294 2.294 0 0 0 18.701 3a2.295 2.295 0 0 0-.958 4.381v2.225a1.436 1.436 0 0 1-1.436 1.437h-1.914c-.517 0-1 .126-1.437.335V7.38A2.294 2.294 0 0 0 12 3a2.294 2.294 0 0 0-.957 4.381v3.997a3.315 3.315 0 0 0-1.436-.335H7.69a1.436 1.436 0 0 1-1.436-1.437V7.381a2.293 2.293 0 0 0 .667-3.708A2.298 2.298 0 0 0 3 5.298c0 .926.55 1.72 1.34 2.083zM12 20.028a1.325 1.325 0 1 1 0-2.65 1.325 1.325 0 0 1 0 2.65zm6.7-16.056a1.326 1.326 0 1 1 0 2.652 1.326 1.326 0 0 1 0-2.652zm-6.7 0a1.326 1.326 0 1 1 0 2.651 1.326 1.326 0 0 1 0-2.651zm-6.702 0a1.326 1.326 0 1 1 0 2.651 1.326 1.326 0 0 1 0-2.651z" fill="#565656"/>
    <circle cx="19" cy="5" r="3" fill="#F68B1F"/>
    <circle cx="12" cy="5" r="3" fill="#005D34"/>
    <circle cx="5" cy="5" r="3" fill="#F68B1F"/>
    <circle cx="12" cy="19" r="3" fill="#005D34"/>
</svg>
