<svg width="24" height="24" viewBox="0 0 24 24" fill="none" xmlns="http://www.w3.org/2000/svg">
    <path d="M14.685 11.512 6.384 10.05v10.807a.894.894 0 0 0 .895.893h14.325a.893.893 0 0 0 .896-.893v-3.982l-7.815-5.363z" fill="#185C37"/>
    <path d="M14.685 2.25H7.28a.894.894 0 0 0-.895.893v3.982L14.686 12l4.395 1.463L22.5 12V7.125L14.685 2.25z" fill="#21A366"/>
    <path d="M6.384 7.125h8.302V12H6.384V7.125z" fill="#107C41"/>
    <path opacity=".1" d="M12.325 6.15H6.384v12.187h5.941a.9.9 0 0 0 .896-.893v-10.4a.9.9 0 0 0-.896-.894z" fill="#000"/>
    <path opacity=".2" d="M11.837 6.637H6.384v12.188h5.453a.9.9 0 0 0 .896-.893V7.53a.9.9 0 0 0-.896-.894z" fill="#000"/>
    <path opacity=".2" d="M11.837 6.637H6.384V17.85h5.453a.9.9 0 0 0 .896-.893V7.53a.9.9 0 0 0-.896-.894z" fill="#000"/>
    <path opacity=".2" d="M11.349 6.637H6.384V17.85h4.965a.9.9 0 0 0 .895-.893V7.53a.9.9 0 0 0-.895-.894z" fill="#000"/>
    <path d="M2.396 6.637h8.953a.895.895 0 0 1 .896.894v8.938a.894.894 0 0 1-.896.893H2.395a.896.896 0 0 1-.895-.893V7.531a.894.894 0 0 1 .896-.894z" fill="url(#cjl4n3937a)"/>
    <path d="m4.275 14.905 1.884-2.913-1.725-2.897h1.385l.941 1.855c.087.176.15.306.179.393h.012c.062-.141.127-.277.195-.41l1.007-1.835h1.275l-1.77 2.88 1.815 2.929H8.116L7.03 12.874A1.768 1.768 0 0 1 6.9 12.6h-.018c-.031.092-.074.18-.126.263l-1.12 2.042h-1.36z" fill="#fff"/>
    <path d="M21.604 2.25h-6.918v4.875H22.5V3.143a.893.893 0 0 0-.896-.893z" fill="#33C481"/>
    <path d="M14.685 12H22.5v4.875h-7.815V12z" fill="#107C41"/>
    <defs>
        <linearGradient id="cjl4n3937a" x1="3.37" y1="5.935" x2="10.374" y2="18.064" gradientUnits="userSpaceOnUse">
            <stop stop-color="#18884F"/>
            <stop offset=".5" stop-color="#117E43"/>
            <stop offset="1" stop-color="#0B6631"/>
        </linearGradient>
    </defs>
</svg>
